 http://www.imdb.com/title/tt0116253/

Source: Executive.Decision.1996.720p.BluRay.X264-AMIABLE Thanks!

Subs: Arabic, Bulgarian, Danish, Dutch, English, Finnish, Grench, Greek, Polish, Romanian, Slovenian and Vietnamese.

Sample and Screens included.

General
Complete name                    : Executive Decision-720p MP4 AAC x264 BRRip 1996-CC.mp4
Format                           : MPEG-4
Format profile                   : Base Media
Codec ID                         : isom
File size                        : 2.47 GiB
Duration                         : 2h 12mn
Overall bit rate                 : 2 663 Kbps
Encoded date                     : UTC 2012-08-21 15:21:59 

Video
ID                               : 1
Format                           : AVC
Format/Info                      : Advanced Video Codec
Format profile                   : High@L3.1
Format settings, CABAC           : Yes
Format settings, ReFrames        : 5 frames
Codec ID                         : avc1
Codec ID/Info                    : Advanced Video Coding
Duration                         : 2h 12mn
Bit rate mode                    : Variable
Bit rate                         : 2 274 Kbps
Nominal bit rate                 : 2 288 Kbps
Maximum bit rate                 : 18.1 Mbps
Width                            : 1 280 pixels
Height                           : 528 pixels
Display aspect ratio             : 2.35:1
Frame rate mode                  : Variable
Frame rate                       : 23.976 fps
Minimum frame rate               : 15.997 fps
Maximum frame rate               : 25.000 fps
Resolution                       : 24 bits
Colorimetry                      : 4:2:0
Scan type                        : Progressive
Bits/(Pixel*Frame)               : 0.140
Stream size                      : 2.11 GiB (85%)
Writing library                  : x264 core 112

Audio
ID                               : 2
Format                           : AAC
Format/Info                      : Advanced Audio Codec
Format version                   : Version 4
Format profile                   : LC
Format settings, SBR             : No
Codec ID                         : 40
Duration                         : 2h 12mn
Bit rate mode                    : Variable
Bit rate                         : 384 Kbps
Maximum bit rate                 : 600 Kbps
Channel(s)                       : 6 channels
Channel positions                : Front: L C R, Rear: L R, LFE
Sampling rate                    : 48.0 KHz
Resolution                       : 16 bits
Stream size                      : 364 MiB (14%)
Language                         : English

Enjoy...

Requested by aartje80.